<mxfile host="app.diagrams.net" agent="Mozilla/5.0 (Windows NT 10.0; Win64; x64) AppleWebKit/537.36 (KHTML, like Gecko) Chrome/130.0.0.0 Safari/537.36" version="24.8.3">
  <diagram name="Page-1" id="ktYYeQN8WLj7u1vCZWg3">
    <mxGraphModel dx="1819" dy="537" grid="1" gridSize="10" guides="1" tooltips="1" connect="1" arrows="1" fold="1" page="1" pageScale="1" pageWidth="850" pageHeight="1100" math="0" shadow="0">
      <root>
        <mxCell id="0" />
        <mxCell id="1" parent="0" />
        <mxCell id="5e0rTwiGWB9B-gvFL6qZ-2" value="Company" style="rounded=0;whiteSpace=wrap;html=1;fontSize=18;" parent="1" vertex="1">
          <mxGeometry x="300" y="130" width="210" height="120" as="geometry" />
        </mxCell>
        <mxCell id="5e0rTwiGWB9B-gvFL6qZ-3" value="name" style="ellipse;whiteSpace=wrap;html=1;fontSize=15;" parent="1" vertex="1">
          <mxGeometry x="280" y="30" width="120" height="80" as="geometry" />
        </mxCell>
        <mxCell id="5e0rTwiGWB9B-gvFL6qZ-4" value="" style="endArrow=none;html=1;rounded=0;" parent="1" source="5e0rTwiGWB9B-gvFL6qZ-2" target="5e0rTwiGWB9B-gvFL6qZ-3" edge="1">
          <mxGeometry width="50" height="50" relative="1" as="geometry">
            <mxPoint x="490" y="120" as="sourcePoint" />
            <mxPoint x="540" y="70" as="targetPoint" />
          </mxGeometry>
        </mxCell>
        <mxCell id="5e0rTwiGWB9B-gvFL6qZ-5" value="Category" style="rounded=0;whiteSpace=wrap;html=1;fontSize=18;" parent="1" vertex="1">
          <mxGeometry x="540" y="130" width="210" height="120" as="geometry" />
        </mxCell>
        <mxCell id="5e0rTwiGWB9B-gvFL6qZ-6" value="name" style="ellipse;whiteSpace=wrap;html=1;fontSize=15;" parent="1" vertex="1">
          <mxGeometry x="510" y="30" width="120" height="80" as="geometry" />
        </mxCell>
        <mxCell id="5e0rTwiGWB9B-gvFL6qZ-7" value="" style="endArrow=none;html=1;rounded=0;" parent="1" source="5e0rTwiGWB9B-gvFL6qZ-5" target="5e0rTwiGWB9B-gvFL6qZ-6" edge="1">
          <mxGeometry width="50" height="50" relative="1" as="geometry">
            <mxPoint x="720" y="120" as="sourcePoint" />
            <mxPoint x="770" y="70" as="targetPoint" />
          </mxGeometry>
        </mxCell>
        <mxCell id="5e0rTwiGWB9B-gvFL6qZ-13" value="info" style="ellipse;whiteSpace=wrap;html=1;fontSize=15;" parent="1" vertex="1">
          <mxGeometry x="700" y="20" width="120" height="80" as="geometry" />
        </mxCell>
        <mxCell id="5e0rTwiGWB9B-gvFL6qZ-14" value="" style="endArrow=none;html=1;rounded=0;" parent="1" source="5e0rTwiGWB9B-gvFL6qZ-5" target="5e0rTwiGWB9B-gvFL6qZ-13" edge="1">
          <mxGeometry width="50" height="50" relative="1" as="geometry">
            <mxPoint x="818" y="120" as="sourcePoint" />
            <mxPoint x="980" y="60" as="targetPoint" />
          </mxGeometry>
        </mxCell>
        <mxCell id="5e0rTwiGWB9B-gvFL6qZ-15" value="Medicine" style="rounded=0;whiteSpace=wrap;html=1;fontSize=18;" parent="1" vertex="1">
          <mxGeometry x="547.5" y="460" width="210" height="120" as="geometry" />
        </mxCell>
        <mxCell id="5e0rTwiGWB9B-gvFL6qZ-16" value="Scientific_name" style="ellipse;whiteSpace=wrap;html=1;fontSize=15;" parent="1" vertex="1">
          <mxGeometry x="700" y="650" width="120" height="80" as="geometry" />
        </mxCell>
        <mxCell id="5e0rTwiGWB9B-gvFL6qZ-17" value="" style="endArrow=none;html=1;rounded=0;" parent="1" source="5e0rTwiGWB9B-gvFL6qZ-15" target="5e0rTwiGWB9B-gvFL6qZ-16" edge="1">
          <mxGeometry width="50" height="50" relative="1" as="geometry">
            <mxPoint x="727.5" y="450" as="sourcePoint" />
            <mxPoint x="777.5" y="400" as="targetPoint" />
          </mxGeometry>
        </mxCell>
        <mxCell id="5e0rTwiGWB9B-gvFL6qZ-18" value="info" style="ellipse;whiteSpace=wrap;html=1;fontSize=15;" parent="1" vertex="1">
          <mxGeometry x="797.5" y="565" width="120" height="80" as="geometry" />
        </mxCell>
        <mxCell id="5e0rTwiGWB9B-gvFL6qZ-19" value="" style="endArrow=none;html=1;rounded=0;" parent="1" source="5e0rTwiGWB9B-gvFL6qZ-15" target="5e0rTwiGWB9B-gvFL6qZ-18" edge="1">
          <mxGeometry width="50" height="50" relative="1" as="geometry">
            <mxPoint x="825.5" y="450" as="sourcePoint" />
            <mxPoint x="987.5" y="390" as="targetPoint" />
          </mxGeometry>
        </mxCell>
        <mxCell id="5e0rTwiGWB9B-gvFL6qZ-20" value="commercial_name" style="ellipse;whiteSpace=wrap;html=1;fontSize=15;" parent="1" vertex="1">
          <mxGeometry x="847.5" y="670" width="147.5" height="80" as="geometry" />
        </mxCell>
        <mxCell id="5e0rTwiGWB9B-gvFL6qZ-21" value="" style="endArrow=none;html=1;rounded=0;" parent="1" source="5e0rTwiGWB9B-gvFL6qZ-15" target="5e0rTwiGWB9B-gvFL6qZ-20" edge="1">
          <mxGeometry width="50" height="50" relative="1" as="geometry">
            <mxPoint x="645" y="450" as="sourcePoint" />
            <mxPoint x="920" y="370" as="targetPoint" />
          </mxGeometry>
        </mxCell>
        <mxCell id="5e0rTwiGWB9B-gvFL6qZ-22" value="quantity" style="ellipse;whiteSpace=wrap;html=1;fontSize=15;" parent="1" vertex="1">
          <mxGeometry x="917.5" y="540" width="120" height="80" as="geometry" />
        </mxCell>
        <mxCell id="5e0rTwiGWB9B-gvFL6qZ-23" value="" style="endArrow=none;html=1;rounded=0;" parent="1" source="5e0rTwiGWB9B-gvFL6qZ-15" target="5e0rTwiGWB9B-gvFL6qZ-22" edge="1">
          <mxGeometry width="50" height="50" relative="1" as="geometry">
            <mxPoint x="757.5" y="490" as="sourcePoint" />
            <mxPoint x="1026.5" y="300" as="targetPoint" />
          </mxGeometry>
        </mxCell>
        <mxCell id="5e0rTwiGWB9B-gvFL6qZ-24" value="expiry_date" style="ellipse;whiteSpace=wrap;html=1;fontSize=15;" parent="1" vertex="1">
          <mxGeometry x="827.5" y="470" width="120" height="80" as="geometry" />
        </mxCell>
        <mxCell id="5e0rTwiGWB9B-gvFL6qZ-25" value="" style="endArrow=none;html=1;rounded=0;" parent="1" source="5e0rTwiGWB9B-gvFL6qZ-15" target="5e0rTwiGWB9B-gvFL6qZ-24" edge="1">
          <mxGeometry width="50" height="50" relative="1" as="geometry">
            <mxPoint x="727.5" y="500" as="sourcePoint" />
            <mxPoint x="1063.5" y="220" as="targetPoint" />
          </mxGeometry>
        </mxCell>
        <mxCell id="5e0rTwiGWB9B-gvFL6qZ-26" value="price" style="ellipse;whiteSpace=wrap;html=1;fontSize=15;" parent="1" vertex="1">
          <mxGeometry x="917.5" y="400" width="120" height="80" as="geometry" />
        </mxCell>
        <mxCell id="5e0rTwiGWB9B-gvFL6qZ-27" value="" style="endArrow=none;html=1;rounded=0;" parent="1" source="5e0rTwiGWB9B-gvFL6qZ-15" target="5e0rTwiGWB9B-gvFL6qZ-26" edge="1">
          <mxGeometry width="50" height="50" relative="1" as="geometry">
            <mxPoint x="737.5049169278351" y="320" as="sourcePoint" />
            <mxPoint x="1091.91" y="60" as="targetPoint" />
          </mxGeometry>
        </mxCell>
        <mxCell id="5e0rTwiGWB9B-gvFL6qZ-28" value="belong to" style="rhombus;whiteSpace=wrap;html=1;fontSize=15;" parent="1" vertex="1">
          <mxGeometry x="597.5" y="300" width="95" height="90" as="geometry" />
        </mxCell>
        <mxCell id="5e0rTwiGWB9B-gvFL6qZ-29" value="" style="shape=link;html=1;rounded=0;" parent="1" source="5e0rTwiGWB9B-gvFL6qZ-28" edge="1">
          <mxGeometry relative="1" as="geometry">
            <mxPoint x="460" y="390" as="sourcePoint" />
            <mxPoint x="682.7857142857142" y="460" as="targetPoint" />
          </mxGeometry>
        </mxCell>
        <mxCell id="5e0rTwiGWB9B-gvFL6qZ-30" value="N" style="resizable=0;html=1;whiteSpace=wrap;align=right;verticalAlign=bottom;" parent="5e0rTwiGWB9B-gvFL6qZ-29" connectable="0" vertex="1">
          <mxGeometry x="1" relative="1" as="geometry" />
        </mxCell>
        <mxCell id="5e0rTwiGWB9B-gvFL6qZ-31" value="" style="endArrow=none;html=1;rounded=0;" parent="1" source="5e0rTwiGWB9B-gvFL6qZ-28" target="5e0rTwiGWB9B-gvFL6qZ-5" edge="1">
          <mxGeometry relative="1" as="geometry">
            <mxPoint x="550" y="270" as="sourcePoint" />
            <mxPoint x="710" y="270" as="targetPoint" />
          </mxGeometry>
        </mxCell>
        <mxCell id="5e0rTwiGWB9B-gvFL6qZ-32" value="1" style="resizable=0;html=1;whiteSpace=wrap;align=right;verticalAlign=bottom;" parent="5e0rTwiGWB9B-gvFL6qZ-31" connectable="0" vertex="1">
          <mxGeometry x="1" relative="1" as="geometry" />
        </mxCell>
        <mxCell id="5e0rTwiGWB9B-gvFL6qZ-33" value="belong to" style="rhombus;whiteSpace=wrap;html=1;fontSize=15;" parent="1" vertex="1">
          <mxGeometry x="460" y="315" width="95" height="90" as="geometry" />
        </mxCell>
        <mxCell id="5e0rTwiGWB9B-gvFL6qZ-34" value="" style="shape=link;html=1;rounded=0;" parent="1" source="5e0rTwiGWB9B-gvFL6qZ-33" edge="1">
          <mxGeometry relative="1" as="geometry">
            <mxPoint x="202.5" y="260" as="sourcePoint" />
            <mxPoint x="629.375" y="460" as="targetPoint" />
          </mxGeometry>
        </mxCell>
        <mxCell id="5e0rTwiGWB9B-gvFL6qZ-35" value="N" style="resizable=0;html=1;whiteSpace=wrap;align=right;verticalAlign=bottom;" parent="5e0rTwiGWB9B-gvFL6qZ-34" connectable="0" vertex="1">
          <mxGeometry x="1" relative="1" as="geometry" />
        </mxCell>
        <mxCell id="5e0rTwiGWB9B-gvFL6qZ-36" value="" style="endArrow=none;html=1;rounded=0;" parent="1" source="5e0rTwiGWB9B-gvFL6qZ-33" target="5e0rTwiGWB9B-gvFL6qZ-2" edge="1">
          <mxGeometry relative="1" as="geometry">
            <mxPoint x="402.5" y="270" as="sourcePoint" />
            <mxPoint x="497.5" y="250" as="targetPoint" />
          </mxGeometry>
        </mxCell>
        <mxCell id="5e0rTwiGWB9B-gvFL6qZ-37" value="1" style="resizable=0;html=1;whiteSpace=wrap;align=right;verticalAlign=bottom;" parent="5e0rTwiGWB9B-gvFL6qZ-36" connectable="0" vertex="1">
          <mxGeometry x="1" relative="1" as="geometry" />
        </mxCell>
        <mxCell id="5e0rTwiGWB9B-gvFL6qZ-38" value="" style="endArrow=none;html=1;rounded=0;" parent="1" edge="1">
          <mxGeometry relative="1" as="geometry">
            <mxPoint x="-40" y="980" as="sourcePoint" />
            <mxPoint x="1100" y="980" as="targetPoint" />
          </mxGeometry>
        </mxCell>
        <mxCell id="5e0rTwiGWB9B-gvFL6qZ-39" value="" style="endArrow=none;html=1;rounded=0;" parent="1" edge="1">
          <mxGeometry relative="1" as="geometry">
            <mxPoint x="1100" as="sourcePoint" />
            <mxPoint x="1100" y="980" as="targetPoint" />
          </mxGeometry>
        </mxCell>
        <mxCell id="5e0rTwiGWB9B-gvFL6qZ-40" value="User" style="shape=table;startSize=30;container=1;collapsible=1;childLayout=tableLayout;fixedRows=1;rowLines=0;fontStyle=1;align=center;resizeLast=1;html=1;fillColor=#0050ef;strokeColor=#001DBC;fontColor=#ffffff;strokeWidth=1;perimeterSpacing=0;" parent="1" vertex="1">
          <mxGeometry x="655" y="1440" width="210" height="180" as="geometry" />
        </mxCell>
        <mxCell id="5e0rTwiGWB9B-gvFL6qZ-41" value="" style="shape=tableRow;horizontal=0;startSize=0;swimlaneHead=0;swimlaneBody=0;fillColor=none;collapsible=0;dropTarget=0;points=[[0,0.5],[1,0.5]];portConstraint=eastwest;top=0;left=0;right=0;bottom=1;" parent="5e0rTwiGWB9B-gvFL6qZ-40" vertex="1">
          <mxGeometry y="30" width="210" height="30" as="geometry" />
        </mxCell>
        <mxCell id="5e0rTwiGWB9B-gvFL6qZ-42" value="PK" style="shape=partialRectangle;connectable=0;fillColor=#fa6800;top=0;left=0;bottom=0;right=0;fontStyle=1;overflow=hidden;whiteSpace=wrap;html=1;strokeColor=#C73500;fontColor=#000000;" parent="5e0rTwiGWB9B-gvFL6qZ-41" vertex="1">
          <mxGeometry width="50" height="30" as="geometry">
            <mxRectangle width="50" height="30" as="alternateBounds" />
          </mxGeometry>
        </mxCell>
        <mxCell id="5e0rTwiGWB9B-gvFL6qZ-43" value="id" style="shape=partialRectangle;connectable=0;fillColor=#fa6800;top=0;left=0;bottom=0;right=0;align=left;spacingLeft=6;fontStyle=5;overflow=hidden;whiteSpace=wrap;html=1;fontColor=#000000;strokeColor=#C73500;" parent="5e0rTwiGWB9B-gvFL6qZ-41" vertex="1">
          <mxGeometry x="50" width="160" height="30" as="geometry">
            <mxRectangle width="160" height="30" as="alternateBounds" />
          </mxGeometry>
        </mxCell>
        <mxCell id="5e0rTwiGWB9B-gvFL6qZ-47" value="" style="shape=tableRow;horizontal=0;startSize=0;swimlaneHead=0;swimlaneBody=0;fillColor=none;collapsible=0;dropTarget=0;points=[[0,0.5],[1,0.5]];portConstraint=eastwest;top=0;left=0;right=0;bottom=0;" parent="5e0rTwiGWB9B-gvFL6qZ-40" vertex="1">
          <mxGeometry y="60" width="210" height="30" as="geometry" />
        </mxCell>
        <mxCell id="5e0rTwiGWB9B-gvFL6qZ-48" value="String" style="shape=partialRectangle;connectable=0;fillColor=#e3c800;top=0;left=0;bottom=0;right=0;editable=1;overflow=hidden;whiteSpace=wrap;html=1;fontColor=#000000;strokeColor=#B09500;" parent="5e0rTwiGWB9B-gvFL6qZ-47" vertex="1">
          <mxGeometry width="50" height="30" as="geometry">
            <mxRectangle width="50" height="30" as="alternateBounds" />
          </mxGeometry>
        </mxCell>
        <mxCell id="5e0rTwiGWB9B-gvFL6qZ-49" value="password" style="shape=partialRectangle;connectable=0;fillColor=#e3c800;top=0;left=0;bottom=0;right=0;align=left;spacingLeft=6;overflow=hidden;whiteSpace=wrap;html=1;fontColor=#000000;strokeColor=#B09500;" parent="5e0rTwiGWB9B-gvFL6qZ-47" vertex="1">
          <mxGeometry x="50" width="160" height="30" as="geometry">
            <mxRectangle width="160" height="30" as="alternateBounds" />
          </mxGeometry>
        </mxCell>
        <mxCell id="5e0rTwiGWB9B-gvFL6qZ-55" value="" style="shape=tableRow;horizontal=0;startSize=0;swimlaneHead=0;swimlaneBody=0;fillColor=none;collapsible=0;dropTarget=0;points=[[0,0.5],[1,0.5]];portConstraint=eastwest;top=0;left=0;right=0;bottom=0;" parent="5e0rTwiGWB9B-gvFL6qZ-40" vertex="1">
          <mxGeometry y="90" width="210" height="30" as="geometry" />
        </mxCell>
        <mxCell id="5e0rTwiGWB9B-gvFL6qZ-56" value="String" style="shape=partialRectangle;connectable=0;top=0;left=0;bottom=0;right=0;editable=1;overflow=hidden;whiteSpace=wrap;html=1;fillColor=#e3c800;fontColor=#000000;strokeColor=#B09500;" parent="5e0rTwiGWB9B-gvFL6qZ-55" vertex="1">
          <mxGeometry width="50" height="30" as="geometry">
            <mxRectangle width="50" height="30" as="alternateBounds" />
          </mxGeometry>
        </mxCell>
        <mxCell id="5e0rTwiGWB9B-gvFL6qZ-57" value="phone_number" style="shape=partialRectangle;connectable=0;top=0;left=0;bottom=0;right=0;align=left;spacingLeft=6;overflow=hidden;whiteSpace=wrap;html=1;fillColor=#e3c800;fontColor=#000000;strokeColor=#B09500;" parent="5e0rTwiGWB9B-gvFL6qZ-55" vertex="1">
          <mxGeometry x="50" width="160" height="30" as="geometry">
            <mxRectangle width="160" height="30" as="alternateBounds" />
          </mxGeometry>
        </mxCell>
        <mxCell id="5e0rTwiGWB9B-gvFL6qZ-61" value="" style="shape=tableRow;horizontal=0;startSize=0;swimlaneHead=0;swimlaneBody=0;fillColor=none;collapsible=0;dropTarget=0;points=[[0,0.5],[1,0.5]];portConstraint=eastwest;top=0;left=0;right=0;bottom=0;" parent="5e0rTwiGWB9B-gvFL6qZ-40" vertex="1">
          <mxGeometry y="120" width="210" height="30" as="geometry" />
        </mxCell>
        <mxCell id="5e0rTwiGWB9B-gvFL6qZ-62" value="String" style="shape=partialRectangle;connectable=0;top=0;left=0;bottom=0;right=0;editable=1;overflow=hidden;whiteSpace=wrap;html=1;fillColor=#e3c800;fontColor=#000000;strokeColor=#B09500;" parent="5e0rTwiGWB9B-gvFL6qZ-61" vertex="1">
          <mxGeometry width="50" height="30" as="geometry">
            <mxRectangle width="50" height="30" as="alternateBounds" />
          </mxGeometry>
        </mxCell>
        <mxCell id="5e0rTwiGWB9B-gvFL6qZ-63" value="first_name" style="shape=partialRectangle;connectable=0;top=0;left=0;bottom=0;right=0;align=left;spacingLeft=6;overflow=hidden;whiteSpace=wrap;html=1;fillColor=#e3c800;fontColor=#000000;strokeColor=#B09500;" parent="5e0rTwiGWB9B-gvFL6qZ-61" vertex="1">
          <mxGeometry x="50" width="160" height="30" as="geometry">
            <mxRectangle width="160" height="30" as="alternateBounds" />
          </mxGeometry>
        </mxCell>
        <mxCell id="5e0rTwiGWB9B-gvFL6qZ-50" value="" style="shape=tableRow;horizontal=0;startSize=0;swimlaneHead=0;swimlaneBody=0;fillColor=none;collapsible=0;dropTarget=0;points=[[0,0.5],[1,0.5]];portConstraint=eastwest;top=0;left=0;right=0;bottom=0;" parent="5e0rTwiGWB9B-gvFL6qZ-40" vertex="1">
          <mxGeometry y="150" width="210" height="30" as="geometry" />
        </mxCell>
        <mxCell id="5e0rTwiGWB9B-gvFL6qZ-51" value="String" style="shape=partialRectangle;connectable=0;top=0;left=0;bottom=0;right=0;editable=1;overflow=hidden;whiteSpace=wrap;html=1;fillColor=#e3c800;fontColor=#000000;strokeColor=#B09500;" parent="5e0rTwiGWB9B-gvFL6qZ-50" vertex="1">
          <mxGeometry width="50" height="30" as="geometry">
            <mxRectangle width="50" height="30" as="alternateBounds" />
          </mxGeometry>
        </mxCell>
        <mxCell id="5e0rTwiGWB9B-gvFL6qZ-52" value="last_name" style="shape=partialRectangle;connectable=0;top=0;left=0;bottom=0;right=0;align=left;spacingLeft=6;overflow=hidden;whiteSpace=wrap;html=1;fillColor=#e3c800;fontColor=#000000;strokeColor=#B09500;" parent="5e0rTwiGWB9B-gvFL6qZ-50" vertex="1">
          <mxGeometry x="50" width="160" height="30" as="geometry">
            <mxRectangle width="160" height="30" as="alternateBounds" />
          </mxGeometry>
        </mxCell>
        <mxCell id="5e0rTwiGWB9B-gvFL6qZ-64" value="Company" style="shape=table;startSize=30;container=1;collapsible=1;childLayout=tableLayout;fixedRows=1;rowLines=0;fontStyle=1;align=center;resizeLast=1;html=1;fillColor=#0050ef;strokeColor=#001DBC;fontColor=#ffffff;" parent="1" vertex="1">
          <mxGeometry x="467.5" y="1010" width="210" height="90" as="geometry" />
        </mxCell>
        <mxCell id="5e0rTwiGWB9B-gvFL6qZ-65" value="" style="shape=tableRow;horizontal=0;startSize=0;swimlaneHead=0;swimlaneBody=0;fillColor=none;collapsible=0;dropTarget=0;points=[[0,0.5],[1,0.5]];portConstraint=eastwest;top=0;left=0;right=0;bottom=1;" parent="5e0rTwiGWB9B-gvFL6qZ-64" vertex="1">
          <mxGeometry y="30" width="210" height="30" as="geometry" />
        </mxCell>
        <mxCell id="5e0rTwiGWB9B-gvFL6qZ-66" value="PK" style="shape=partialRectangle;connectable=0;fillColor=#fa6800;top=0;left=0;bottom=0;right=0;fontStyle=1;overflow=hidden;whiteSpace=wrap;html=1;strokeColor=#C73500;fontColor=#000000;" parent="5e0rTwiGWB9B-gvFL6qZ-65" vertex="1">
          <mxGeometry width="50" height="30" as="geometry">
            <mxRectangle width="50" height="30" as="alternateBounds" />
          </mxGeometry>
        </mxCell>
        <mxCell id="5e0rTwiGWB9B-gvFL6qZ-67" value="id" style="shape=partialRectangle;connectable=0;fillColor=#fa6800;top=0;left=0;bottom=0;right=0;align=left;spacingLeft=6;fontStyle=5;overflow=hidden;whiteSpace=wrap;html=1;fontColor=#000000;strokeColor=#C73500;" parent="5e0rTwiGWB9B-gvFL6qZ-65" vertex="1">
          <mxGeometry x="50" width="160" height="30" as="geometry">
            <mxRectangle width="160" height="30" as="alternateBounds" />
          </mxGeometry>
        </mxCell>
        <mxCell id="5e0rTwiGWB9B-gvFL6qZ-80" value="" style="shape=tableRow;horizontal=0;startSize=0;swimlaneHead=0;swimlaneBody=0;fillColor=none;collapsible=0;dropTarget=0;points=[[0,0.5],[1,0.5]];portConstraint=eastwest;top=0;left=0;right=0;bottom=0;" parent="5e0rTwiGWB9B-gvFL6qZ-64" vertex="1">
          <mxGeometry y="60" width="210" height="30" as="geometry" />
        </mxCell>
        <mxCell id="5e0rTwiGWB9B-gvFL6qZ-81" value="String" style="shape=partialRectangle;connectable=0;top=0;left=0;bottom=0;right=0;editable=1;overflow=hidden;whiteSpace=wrap;html=1;fillColor=#e3c800;fontColor=#000000;strokeColor=#B09500;" parent="5e0rTwiGWB9B-gvFL6qZ-80" vertex="1">
          <mxGeometry width="50" height="30" as="geometry">
            <mxRectangle width="50" height="30" as="alternateBounds" />
          </mxGeometry>
        </mxCell>
        <mxCell id="5e0rTwiGWB9B-gvFL6qZ-82" value="name" style="shape=partialRectangle;connectable=0;top=0;left=0;bottom=0;right=0;align=left;spacingLeft=6;overflow=hidden;whiteSpace=wrap;html=1;fillColor=#e3c800;fontColor=#000000;strokeColor=#B09500;" parent="5e0rTwiGWB9B-gvFL6qZ-80" vertex="1">
          <mxGeometry x="50" width="160" height="30" as="geometry">
            <mxRectangle width="160" height="30" as="alternateBounds" />
          </mxGeometry>
        </mxCell>
        <mxCell id="5e0rTwiGWB9B-gvFL6qZ-89" value="" style="endArrow=classic;html=1;rounded=0;exitX=0;exitY=0.5;exitDx=0;exitDy=0;" parent="1" source="5e0rTwiGWB9B-gvFL6qZ-65" target="Y0nzjm_N_6wjHUXYPser-44" edge="1">
          <mxGeometry width="50" height="50" relative="1" as="geometry">
            <mxPoint x="367.5" y="1140" as="sourcePoint" />
            <mxPoint x="317.5" y="1280" as="targetPoint" />
            <Array as="points">
              <mxPoint x="387.5" y="1055" />
              <mxPoint x="387.5" y="1255" />
            </Array>
          </mxGeometry>
        </mxCell>
        <mxCell id="5e0rTwiGWB9B-gvFL6qZ-90" value="Category" style="shape=table;startSize=30;container=1;collapsible=1;childLayout=tableLayout;fixedRows=1;rowLines=0;fontStyle=1;align=center;resizeLast=1;html=1;fillColor=#0050ef;strokeColor=#001DBC;fontColor=#ffffff;" parent="1" vertex="1">
          <mxGeometry x="467.5" y="1140" width="210" height="120" as="geometry" />
        </mxCell>
        <mxCell id="5e0rTwiGWB9B-gvFL6qZ-91" value="" style="shape=tableRow;horizontal=0;startSize=0;swimlaneHead=0;swimlaneBody=0;fillColor=none;collapsible=0;dropTarget=0;points=[[0,0.5],[1,0.5]];portConstraint=eastwest;top=0;left=0;right=0;bottom=1;" parent="5e0rTwiGWB9B-gvFL6qZ-90" vertex="1">
          <mxGeometry y="30" width="210" height="30" as="geometry" />
        </mxCell>
        <mxCell id="5e0rTwiGWB9B-gvFL6qZ-92" value="PK" style="shape=partialRectangle;connectable=0;fillColor=#fa6800;top=0;left=0;bottom=0;right=0;fontStyle=1;overflow=hidden;whiteSpace=wrap;html=1;strokeColor=#C73500;fontColor=#000000;" parent="5e0rTwiGWB9B-gvFL6qZ-91" vertex="1">
          <mxGeometry width="50" height="30" as="geometry">
            <mxRectangle width="50" height="30" as="alternateBounds" />
          </mxGeometry>
        </mxCell>
        <mxCell id="5e0rTwiGWB9B-gvFL6qZ-93" value="id" style="shape=partialRectangle;connectable=0;fillColor=#fa6800;top=0;left=0;bottom=0;right=0;align=left;spacingLeft=6;fontStyle=5;overflow=hidden;whiteSpace=wrap;html=1;fontColor=#000000;strokeColor=#C73500;" parent="5e0rTwiGWB9B-gvFL6qZ-91" vertex="1">
          <mxGeometry x="50" width="160" height="30" as="geometry">
            <mxRectangle width="160" height="30" as="alternateBounds" />
          </mxGeometry>
        </mxCell>
        <mxCell id="5e0rTwiGWB9B-gvFL6qZ-94" value="" style="shape=tableRow;horizontal=0;startSize=0;swimlaneHead=0;swimlaneBody=0;fillColor=none;collapsible=0;dropTarget=0;points=[[0,0.5],[1,0.5]];portConstraint=eastwest;top=0;left=0;right=0;bottom=0;" parent="5e0rTwiGWB9B-gvFL6qZ-90" vertex="1">
          <mxGeometry y="60" width="210" height="30" as="geometry" />
        </mxCell>
        <mxCell id="5e0rTwiGWB9B-gvFL6qZ-95" value="String" style="shape=partialRectangle;connectable=0;top=0;left=0;bottom=0;right=0;editable=1;overflow=hidden;whiteSpace=wrap;html=1;fillColor=#e3c800;fontColor=#000000;strokeColor=#B09500;" parent="5e0rTwiGWB9B-gvFL6qZ-94" vertex="1">
          <mxGeometry width="50" height="30" as="geometry">
            <mxRectangle width="50" height="30" as="alternateBounds" />
          </mxGeometry>
        </mxCell>
        <mxCell id="5e0rTwiGWB9B-gvFL6qZ-96" value="name" style="shape=partialRectangle;connectable=0;top=0;left=0;bottom=0;right=0;align=left;spacingLeft=6;overflow=hidden;whiteSpace=wrap;html=1;fillColor=#e3c800;fontColor=#000000;strokeColor=#B09500;" parent="5e0rTwiGWB9B-gvFL6qZ-94" vertex="1">
          <mxGeometry x="50" width="160" height="30" as="geometry">
            <mxRectangle width="160" height="30" as="alternateBounds" />
          </mxGeometry>
        </mxCell>
        <mxCell id="5e0rTwiGWB9B-gvFL6qZ-97" value="" style="shape=tableRow;horizontal=0;startSize=0;swimlaneHead=0;swimlaneBody=0;fillColor=none;collapsible=0;dropTarget=0;points=[[0,0.5],[1,0.5]];portConstraint=eastwest;top=0;left=0;right=0;bottom=0;" parent="5e0rTwiGWB9B-gvFL6qZ-90" vertex="1">
          <mxGeometry y="90" width="210" height="30" as="geometry" />
        </mxCell>
        <mxCell id="5e0rTwiGWB9B-gvFL6qZ-98" value="Text" style="shape=partialRectangle;connectable=0;top=0;left=0;bottom=0;right=0;editable=1;overflow=hidden;whiteSpace=wrap;html=1;fillColor=#76608a;fontColor=#ffffff;strokeColor=#432D57;" parent="5e0rTwiGWB9B-gvFL6qZ-97" vertex="1">
          <mxGeometry width="50" height="30" as="geometry">
            <mxRectangle width="50" height="30" as="alternateBounds" />
          </mxGeometry>
        </mxCell>
        <mxCell id="5e0rTwiGWB9B-gvFL6qZ-99" value="info" style="shape=partialRectangle;connectable=0;top=0;left=0;bottom=0;right=0;align=left;spacingLeft=6;overflow=hidden;whiteSpace=wrap;html=1;fillColor=#76608a;fontColor=#ffffff;strokeColor=#432D57;" parent="5e0rTwiGWB9B-gvFL6qZ-97" vertex="1">
          <mxGeometry x="50" width="160" height="30" as="geometry">
            <mxRectangle width="160" height="30" as="alternateBounds" />
          </mxGeometry>
        </mxCell>
        <mxCell id="5e0rTwiGWB9B-gvFL6qZ-100" value="" style="endArrow=classic;html=1;rounded=0;exitX=0;exitY=0.5;exitDx=0;exitDy=0;" parent="1" source="5e0rTwiGWB9B-gvFL6qZ-91" target="Y0nzjm_N_6wjHUXYPser-47" edge="1">
          <mxGeometry width="50" height="50" relative="1" as="geometry">
            <mxPoint x="477.5" y="1065" as="sourcePoint" />
            <mxPoint x="307.5" y="1275" as="targetPoint" />
            <Array as="points">
              <mxPoint x="397.5" y="1185" />
              <mxPoint x="397.5" y="1285" />
            </Array>
          </mxGeometry>
        </mxCell>
        <mxCell id="Y0nzjm_N_6wjHUXYPser-1" value="Users" style="rounded=0;whiteSpace=wrap;html=1;fontSize=18;" vertex="1" parent="1">
          <mxGeometry x="60" y="460" width="210" height="120" as="geometry" />
        </mxCell>
        <mxCell id="Y0nzjm_N_6wjHUXYPser-2" value="first_name" style="ellipse;whiteSpace=wrap;html=1;fontSize=15;" vertex="1" parent="1">
          <mxGeometry x="-40" y="460" width="80" height="60" as="geometry" />
        </mxCell>
        <mxCell id="Y0nzjm_N_6wjHUXYPser-3" value="" style="endArrow=none;html=1;rounded=0;" edge="1" parent="1" source="Y0nzjm_N_6wjHUXYPser-1" target="Y0nzjm_N_6wjHUXYPser-2">
          <mxGeometry width="50" height="50" relative="1" as="geometry">
            <mxPoint x="260" y="350" as="sourcePoint" />
            <mxPoint x="310" y="300" as="targetPoint" />
          </mxGeometry>
        </mxCell>
        <mxCell id="Y0nzjm_N_6wjHUXYPser-4" value="Medicine_order" style="rhombus;whiteSpace=wrap;html=1;fontSize=15;" vertex="1" parent="1">
          <mxGeometry x="490" y="595" width="130" height="120" as="geometry" />
        </mxCell>
        <mxCell id="Y0nzjm_N_6wjHUXYPser-5" value="" style="shape=link;html=1;rounded=0;" edge="1" parent="1" source="Y0nzjm_N_6wjHUXYPser-4" target="5e0rTwiGWB9B-gvFL6qZ-15">
          <mxGeometry relative="1" as="geometry">
            <mxPoint x="157.5" y="660" as="sourcePoint" />
            <mxPoint x="608.5714285714284" y="650" as="targetPoint" />
          </mxGeometry>
        </mxCell>
        <mxCell id="Y0nzjm_N_6wjHUXYPser-6" value="N" style="resizable=0;html=1;whiteSpace=wrap;align=right;verticalAlign=bottom;" connectable="0" vertex="1" parent="Y0nzjm_N_6wjHUXYPser-5">
          <mxGeometry x="1" relative="1" as="geometry" />
        </mxCell>
        <mxCell id="Y0nzjm_N_6wjHUXYPser-9" value="" style="shape=link;html=1;rounded=0;" edge="1" parent="1" source="Y0nzjm_N_6wjHUXYPser-4" target="Y0nzjm_N_6wjHUXYPser-102">
          <mxGeometry relative="1" as="geometry">
            <mxPoint x="495" y="690" as="sourcePoint" />
            <mxPoint x="490" y="720" as="targetPoint" />
          </mxGeometry>
        </mxCell>
        <mxCell id="Y0nzjm_N_6wjHUXYPser-10" value="M" style="resizable=0;html=1;whiteSpace=wrap;align=right;verticalAlign=bottom;" connectable="0" vertex="1" parent="Y0nzjm_N_6wjHUXYPser-9">
          <mxGeometry x="1" relative="1" as="geometry" />
        </mxCell>
        <mxCell id="Y0nzjm_N_6wjHUXYPser-11" value="last&lt;span style=&quot;background-color: initial;&quot;&gt;_name&lt;/span&gt;" style="ellipse;whiteSpace=wrap;html=1;fontSize=15;" vertex="1" parent="1">
          <mxGeometry x="-60" y="405" width="80" height="50" as="geometry" />
        </mxCell>
        <mxCell id="Y0nzjm_N_6wjHUXYPser-12" value="" style="endArrow=none;html=1;rounded=0;" edge="1" parent="1" target="Y0nzjm_N_6wjHUXYPser-11" source="Y0nzjm_N_6wjHUXYPser-1">
          <mxGeometry width="50" height="50" relative="1" as="geometry">
            <mxPoint x="251" y="445" as="sourcePoint" />
            <mxPoint x="440" y="285" as="targetPoint" />
          </mxGeometry>
        </mxCell>
        <mxCell id="Y0nzjm_N_6wjHUXYPser-13" value="phone_number" style="ellipse;whiteSpace=wrap;html=1;fontSize=15;" vertex="1" parent="1">
          <mxGeometry y="370" width="120" height="50" as="geometry" />
        </mxCell>
        <mxCell id="Y0nzjm_N_6wjHUXYPser-14" value="" style="endArrow=none;html=1;rounded=0;" edge="1" parent="1" target="Y0nzjm_N_6wjHUXYPser-13" source="Y0nzjm_N_6wjHUXYPser-1">
          <mxGeometry width="50" height="50" relative="1" as="geometry">
            <mxPoint x="162.44186046511595" y="520" as="sourcePoint" />
            <mxPoint x="520" y="310" as="targetPoint" />
          </mxGeometry>
        </mxCell>
        <mxCell id="Y0nzjm_N_6wjHUXYPser-16" value="password" style="ellipse;whiteSpace=wrap;html=1;fontSize=15;" vertex="1" parent="1">
          <mxGeometry x="90" y="330" width="80" height="50" as="geometry" />
        </mxCell>
        <mxCell id="Y0nzjm_N_6wjHUXYPser-17" value="" style="endArrow=none;html=1;rounded=0;" edge="1" parent="1" target="Y0nzjm_N_6wjHUXYPser-16" source="Y0nzjm_N_6wjHUXYPser-1">
          <mxGeometry width="50" height="50" relative="1" as="geometry">
            <mxPoint x="263.3333333333335" y="460" as="sourcePoint" />
            <mxPoint x="710" y="270" as="targetPoint" />
          </mxGeometry>
        </mxCell>
        <mxCell id="Y0nzjm_N_6wjHUXYPser-20" value="status" style="ellipse;whiteSpace=wrap;html=1;fontSize=15;" vertex="1" parent="1">
          <mxGeometry x="280" y="850" width="80" height="60" as="geometry" />
        </mxCell>
        <mxCell id="Y0nzjm_N_6wjHUXYPser-21" value="" style="endArrow=none;html=1;rounded=0;" edge="1" parent="1" target="Y0nzjm_N_6wjHUXYPser-20">
          <mxGeometry width="50" height="50" relative="1" as="geometry">
            <mxPoint x="353.07692307692287" y="820" as="sourcePoint" />
            <mxPoint x="665" y="700" as="targetPoint" />
          </mxGeometry>
        </mxCell>
        <mxCell id="Y0nzjm_N_6wjHUXYPser-22" value="Medicine" style="shape=table;startSize=30;container=1;collapsible=1;childLayout=tableLayout;fixedRows=1;rowLines=0;fontStyle=1;align=center;resizeLast=1;html=1;fillColor=#0050ef;strokeColor=#001DBC;fontColor=#ffffff;strokeWidth=1;perimeterSpacing=0;" vertex="1" parent="1">
          <mxGeometry x="67.5" y="1000" width="210" height="300" as="geometry" />
        </mxCell>
        <mxCell id="Y0nzjm_N_6wjHUXYPser-23" value="" style="shape=tableRow;horizontal=0;startSize=0;swimlaneHead=0;swimlaneBody=0;fillColor=none;collapsible=0;dropTarget=0;points=[[0,0.5],[1,0.5]];portConstraint=eastwest;top=0;left=0;right=0;bottom=1;" vertex="1" parent="Y0nzjm_N_6wjHUXYPser-22">
          <mxGeometry y="30" width="210" height="30" as="geometry" />
        </mxCell>
        <mxCell id="Y0nzjm_N_6wjHUXYPser-24" value="PK" style="shape=partialRectangle;connectable=0;fillColor=#fa6800;top=0;left=0;bottom=0;right=0;fontStyle=1;overflow=hidden;whiteSpace=wrap;html=1;strokeColor=#C73500;fontColor=#000000;" vertex="1" parent="Y0nzjm_N_6wjHUXYPser-23">
          <mxGeometry width="50" height="30" as="geometry">
            <mxRectangle width="50" height="30" as="alternateBounds" />
          </mxGeometry>
        </mxCell>
        <mxCell id="Y0nzjm_N_6wjHUXYPser-25" value="id" style="shape=partialRectangle;connectable=0;fillColor=#fa6800;top=0;left=0;bottom=0;right=0;align=left;spacingLeft=6;fontStyle=5;overflow=hidden;whiteSpace=wrap;html=1;fontColor=#000000;strokeColor=#C73500;" vertex="1" parent="Y0nzjm_N_6wjHUXYPser-23">
          <mxGeometry x="50" width="160" height="30" as="geometry">
            <mxRectangle width="160" height="30" as="alternateBounds" />
          </mxGeometry>
        </mxCell>
        <mxCell id="Y0nzjm_N_6wjHUXYPser-26" value="" style="shape=tableRow;horizontal=0;startSize=0;swimlaneHead=0;swimlaneBody=0;fillColor=none;collapsible=0;dropTarget=0;points=[[0,0.5],[1,0.5]];portConstraint=eastwest;top=0;left=0;right=0;bottom=0;" vertex="1" parent="Y0nzjm_N_6wjHUXYPser-22">
          <mxGeometry y="60" width="210" height="30" as="geometry" />
        </mxCell>
        <mxCell id="Y0nzjm_N_6wjHUXYPser-27" value="Double" style="shape=partialRectangle;connectable=0;fillColor=#f5f5f5;top=0;left=0;bottom=0;right=0;editable=1;overflow=hidden;whiteSpace=wrap;html=1;fontColor=#333333;strokeColor=#666666;" vertex="1" parent="Y0nzjm_N_6wjHUXYPser-26">
          <mxGeometry width="50" height="30" as="geometry">
            <mxRectangle width="50" height="30" as="alternateBounds" />
          </mxGeometry>
        </mxCell>
        <mxCell id="Y0nzjm_N_6wjHUXYPser-28" value="price" style="shape=partialRectangle;connectable=0;fillColor=#f5f5f5;top=0;left=0;bottom=0;right=0;align=left;spacingLeft=6;overflow=hidden;whiteSpace=wrap;html=1;fontColor=#333333;strokeColor=#666666;" vertex="1" parent="Y0nzjm_N_6wjHUXYPser-26">
          <mxGeometry x="50" width="160" height="30" as="geometry">
            <mxRectangle width="160" height="30" as="alternateBounds" />
          </mxGeometry>
        </mxCell>
        <mxCell id="Y0nzjm_N_6wjHUXYPser-29" value="" style="shape=tableRow;horizontal=0;startSize=0;swimlaneHead=0;swimlaneBody=0;fillColor=none;collapsible=0;dropTarget=0;points=[[0,0.5],[1,0.5]];portConstraint=eastwest;top=0;left=0;right=0;bottom=0;" vertex="1" parent="Y0nzjm_N_6wjHUXYPser-22">
          <mxGeometry y="90" width="210" height="30" as="geometry" />
        </mxCell>
        <mxCell id="Y0nzjm_N_6wjHUXYPser-30" value="Date" style="shape=partialRectangle;connectable=0;fillColor=#6d8764;top=0;left=0;bottom=0;right=0;editable=1;overflow=hidden;whiteSpace=wrap;html=1;fontColor=#ffffff;strokeColor=#3A5431;" vertex="1" parent="Y0nzjm_N_6wjHUXYPser-29">
          <mxGeometry width="50" height="30" as="geometry">
            <mxRectangle width="50" height="30" as="alternateBounds" />
          </mxGeometry>
        </mxCell>
        <mxCell id="Y0nzjm_N_6wjHUXYPser-31" value="expiry_date" style="shape=partialRectangle;connectable=0;fillColor=#6d8764;top=0;left=0;bottom=0;right=0;align=left;spacingLeft=6;overflow=hidden;whiteSpace=wrap;html=1;fontColor=#ffffff;strokeColor=#3A5431;" vertex="1" parent="Y0nzjm_N_6wjHUXYPser-29">
          <mxGeometry x="50" width="160" height="30" as="geometry">
            <mxRectangle width="160" height="30" as="alternateBounds" />
          </mxGeometry>
        </mxCell>
        <mxCell id="Y0nzjm_N_6wjHUXYPser-32" value="" style="shape=tableRow;horizontal=0;startSize=0;swimlaneHead=0;swimlaneBody=0;fillColor=none;collapsible=0;dropTarget=0;points=[[0,0.5],[1,0.5]];portConstraint=eastwest;top=0;left=0;right=0;bottom=0;" vertex="1" parent="Y0nzjm_N_6wjHUXYPser-22">
          <mxGeometry y="120" width="210" height="30" as="geometry" />
        </mxCell>
        <mxCell id="Y0nzjm_N_6wjHUXYPser-33" value="Integer" style="shape=partialRectangle;connectable=0;top=0;left=0;bottom=0;right=0;editable=1;overflow=hidden;whiteSpace=wrap;html=1;fillColor=#f5f5f5;fontColor=#333333;strokeColor=#666666;" vertex="1" parent="Y0nzjm_N_6wjHUXYPser-32">
          <mxGeometry width="50" height="30" as="geometry">
            <mxRectangle width="50" height="30" as="alternateBounds" />
          </mxGeometry>
        </mxCell>
        <mxCell id="Y0nzjm_N_6wjHUXYPser-34" value="quantity" style="shape=partialRectangle;connectable=0;top=0;left=0;bottom=0;right=0;align=left;spacingLeft=6;overflow=hidden;whiteSpace=wrap;html=1;fillColor=#f5f5f5;fontColor=#333333;strokeColor=#666666;" vertex="1" parent="Y0nzjm_N_6wjHUXYPser-32">
          <mxGeometry x="50" width="160" height="30" as="geometry">
            <mxRectangle width="160" height="30" as="alternateBounds" />
          </mxGeometry>
        </mxCell>
        <mxCell id="Y0nzjm_N_6wjHUXYPser-35" value="" style="shape=tableRow;horizontal=0;startSize=0;swimlaneHead=0;swimlaneBody=0;fillColor=none;collapsible=0;dropTarget=0;points=[[0,0.5],[1,0.5]];portConstraint=eastwest;top=0;left=0;right=0;bottom=0;" vertex="1" parent="Y0nzjm_N_6wjHUXYPser-22">
          <mxGeometry y="150" width="210" height="30" as="geometry" />
        </mxCell>
        <mxCell id="Y0nzjm_N_6wjHUXYPser-36" value="Text" style="shape=partialRectangle;connectable=0;top=0;left=0;bottom=0;right=0;editable=1;overflow=hidden;whiteSpace=wrap;html=1;fillColor=#76608a;fontColor=#ffffff;strokeColor=#432D57;" vertex="1" parent="Y0nzjm_N_6wjHUXYPser-35">
          <mxGeometry width="50" height="30" as="geometry">
            <mxRectangle width="50" height="30" as="alternateBounds" />
          </mxGeometry>
        </mxCell>
        <mxCell id="Y0nzjm_N_6wjHUXYPser-37" value="info" style="shape=partialRectangle;connectable=0;top=0;left=0;bottom=0;right=0;align=left;spacingLeft=6;overflow=hidden;whiteSpace=wrap;html=1;fillColor=#76608a;fontColor=#ffffff;strokeColor=#432D57;" vertex="1" parent="Y0nzjm_N_6wjHUXYPser-35">
          <mxGeometry x="50" width="160" height="30" as="geometry">
            <mxRectangle width="160" height="30" as="alternateBounds" />
          </mxGeometry>
        </mxCell>
        <mxCell id="Y0nzjm_N_6wjHUXYPser-38" value="" style="shape=tableRow;horizontal=0;startSize=0;swimlaneHead=0;swimlaneBody=0;fillColor=none;collapsible=0;dropTarget=0;points=[[0,0.5],[1,0.5]];portConstraint=eastwest;top=0;left=0;right=0;bottom=0;" vertex="1" parent="Y0nzjm_N_6wjHUXYPser-22">
          <mxGeometry y="180" width="210" height="30" as="geometry" />
        </mxCell>
        <mxCell id="Y0nzjm_N_6wjHUXYPser-39" value="String" style="shape=partialRectangle;connectable=0;top=0;left=0;bottom=0;right=0;editable=1;overflow=hidden;whiteSpace=wrap;html=1;fillColor=#e3c800;fontColor=#000000;strokeColor=#B09500;" vertex="1" parent="Y0nzjm_N_6wjHUXYPser-38">
          <mxGeometry width="50" height="30" as="geometry">
            <mxRectangle width="50" height="30" as="alternateBounds" />
          </mxGeometry>
        </mxCell>
        <mxCell id="Y0nzjm_N_6wjHUXYPser-40" value="scientific_name" style="shape=partialRectangle;connectable=0;top=0;left=0;bottom=0;right=0;align=left;spacingLeft=6;overflow=hidden;whiteSpace=wrap;html=1;fillColor=#e3c800;fontColor=#000000;strokeColor=#B09500;" vertex="1" parent="Y0nzjm_N_6wjHUXYPser-38">
          <mxGeometry x="50" width="160" height="30" as="geometry">
            <mxRectangle width="160" height="30" as="alternateBounds" />
          </mxGeometry>
        </mxCell>
        <mxCell id="Y0nzjm_N_6wjHUXYPser-41" value="" style="shape=tableRow;horizontal=0;startSize=0;swimlaneHead=0;swimlaneBody=0;fillColor=none;collapsible=0;dropTarget=0;points=[[0,0.5],[1,0.5]];portConstraint=eastwest;top=0;left=0;right=0;bottom=0;" vertex="1" parent="Y0nzjm_N_6wjHUXYPser-22">
          <mxGeometry y="210" width="210" height="30" as="geometry" />
        </mxCell>
        <mxCell id="Y0nzjm_N_6wjHUXYPser-42" value="String" style="shape=partialRectangle;connectable=0;top=0;left=0;bottom=0;right=0;editable=1;overflow=hidden;whiteSpace=wrap;html=1;fillColor=#e3c800;fontColor=#000000;strokeColor=#B09500;" vertex="1" parent="Y0nzjm_N_6wjHUXYPser-41">
          <mxGeometry width="50" height="30" as="geometry">
            <mxRectangle width="50" height="30" as="alternateBounds" />
          </mxGeometry>
        </mxCell>
        <mxCell id="Y0nzjm_N_6wjHUXYPser-43" value="commercial_name" style="shape=partialRectangle;connectable=0;top=0;left=0;bottom=0;right=0;align=left;spacingLeft=6;overflow=hidden;whiteSpace=wrap;html=1;fillColor=#e3c800;fontColor=#000000;strokeColor=#B09500;" vertex="1" parent="Y0nzjm_N_6wjHUXYPser-41">
          <mxGeometry x="50" width="160" height="30" as="geometry">
            <mxRectangle width="160" height="30" as="alternateBounds" />
          </mxGeometry>
        </mxCell>
        <mxCell id="Y0nzjm_N_6wjHUXYPser-44" value="" style="shape=tableRow;horizontal=0;startSize=0;swimlaneHead=0;swimlaneBody=0;fillColor=none;collapsible=0;dropTarget=0;points=[[0,0.5],[1,0.5]];portConstraint=eastwest;top=0;left=0;right=0;bottom=0;" vertex="1" parent="Y0nzjm_N_6wjHUXYPser-22">
          <mxGeometry y="240" width="210" height="30" as="geometry" />
        </mxCell>
        <mxCell id="Y0nzjm_N_6wjHUXYPser-45" value="FK" style="shape=partialRectangle;connectable=0;top=0;left=0;bottom=0;right=0;editable=1;overflow=hidden;whiteSpace=wrap;html=1;fillColor=#60a917;strokeColor=#2D7600;fontColor=#ffffff;" vertex="1" parent="Y0nzjm_N_6wjHUXYPser-44">
          <mxGeometry width="50" height="30" as="geometry">
            <mxRectangle width="50" height="30" as="alternateBounds" />
          </mxGeometry>
        </mxCell>
        <mxCell id="Y0nzjm_N_6wjHUXYPser-46" value="company_id" style="shape=partialRectangle;connectable=0;top=0;left=0;bottom=0;right=0;align=left;spacingLeft=6;overflow=hidden;whiteSpace=wrap;html=1;fillColor=#60a917;strokeColor=#2D7600;fontColor=#ffffff;" vertex="1" parent="Y0nzjm_N_6wjHUXYPser-44">
          <mxGeometry x="50" width="160" height="30" as="geometry">
            <mxRectangle width="160" height="30" as="alternateBounds" />
          </mxGeometry>
        </mxCell>
        <mxCell id="Y0nzjm_N_6wjHUXYPser-47" value="" style="shape=tableRow;horizontal=0;startSize=0;swimlaneHead=0;swimlaneBody=0;fillColor=none;collapsible=0;dropTarget=0;points=[[0,0.5],[1,0.5]];portConstraint=eastwest;top=0;left=0;right=0;bottom=0;" vertex="1" parent="Y0nzjm_N_6wjHUXYPser-22">
          <mxGeometry y="270" width="210" height="30" as="geometry" />
        </mxCell>
        <mxCell id="Y0nzjm_N_6wjHUXYPser-48" value="FK" style="shape=partialRectangle;connectable=0;top=0;left=0;bottom=0;right=0;editable=1;overflow=hidden;whiteSpace=wrap;html=1;fillColor=#60a917;strokeColor=#2D7600;fontColor=#ffffff;" vertex="1" parent="Y0nzjm_N_6wjHUXYPser-47">
          <mxGeometry width="50" height="30" as="geometry">
            <mxRectangle width="50" height="30" as="alternateBounds" />
          </mxGeometry>
        </mxCell>
        <mxCell id="Y0nzjm_N_6wjHUXYPser-49" value="category_id" style="shape=partialRectangle;connectable=0;top=0;left=0;bottom=0;right=0;align=left;spacingLeft=6;overflow=hidden;whiteSpace=wrap;html=1;fillColor=#60a917;strokeColor=#2D7600;fontColor=#ffffff;" vertex="1" parent="Y0nzjm_N_6wjHUXYPser-47">
          <mxGeometry x="50" width="160" height="30" as="geometry">
            <mxRectangle width="160" height="30" as="alternateBounds" />
          </mxGeometry>
        </mxCell>
        <mxCell id="Y0nzjm_N_6wjHUXYPser-53" value="Orders" style="shape=table;startSize=30;container=1;collapsible=1;childLayout=tableLayout;fixedRows=1;rowLines=0;fontStyle=1;align=center;resizeLast=1;html=1;fillColor=#0050ef;strokeColor=#001DBC;fontColor=#ffffff;strokeWidth=1;perimeterSpacing=0;" vertex="1" parent="1">
          <mxGeometry x="67.5" y="1580" width="210" height="180" as="geometry" />
        </mxCell>
        <mxCell id="Y0nzjm_N_6wjHUXYPser-54" value="" style="shape=tableRow;horizontal=0;startSize=0;swimlaneHead=0;swimlaneBody=0;fillColor=none;collapsible=0;dropTarget=0;points=[[0,0.5],[1,0.5]];portConstraint=eastwest;top=0;left=0;right=0;bottom=1;" vertex="1" parent="Y0nzjm_N_6wjHUXYPser-53">
          <mxGeometry y="30" width="210" height="30" as="geometry" />
        </mxCell>
        <mxCell id="Y0nzjm_N_6wjHUXYPser-55" value="PK" style="shape=partialRectangle;connectable=0;fillColor=#fa6800;top=0;left=0;bottom=0;right=0;fontStyle=1;overflow=hidden;whiteSpace=wrap;html=1;strokeColor=#C73500;fontColor=#000000;" vertex="1" parent="Y0nzjm_N_6wjHUXYPser-54">
          <mxGeometry width="50" height="30" as="geometry">
            <mxRectangle width="50" height="30" as="alternateBounds" />
          </mxGeometry>
        </mxCell>
        <mxCell id="Y0nzjm_N_6wjHUXYPser-56" value="id" style="shape=partialRectangle;connectable=0;fillColor=#fa6800;top=0;left=0;bottom=0;right=0;align=left;spacingLeft=6;fontStyle=5;overflow=hidden;whiteSpace=wrap;html=1;fontColor=#000000;strokeColor=#C73500;" vertex="1" parent="Y0nzjm_N_6wjHUXYPser-54">
          <mxGeometry x="50" width="160" height="30" as="geometry">
            <mxRectangle width="160" height="30" as="alternateBounds" />
          </mxGeometry>
        </mxCell>
        <mxCell id="Y0nzjm_N_6wjHUXYPser-57" value="" style="shape=tableRow;horizontal=0;startSize=0;swimlaneHead=0;swimlaneBody=0;fillColor=#b1ddf0;collapsible=0;dropTarget=0;points=[[0,0.5],[1,0.5]];portConstraint=eastwest;top=0;left=0;right=0;bottom=0;strokeColor=#10739e;" vertex="1" parent="Y0nzjm_N_6wjHUXYPser-53">
          <mxGeometry y="60" width="210" height="30" as="geometry" />
        </mxCell>
        <mxCell id="Y0nzjm_N_6wjHUXYPser-58" value="Enum" style="shape=partialRectangle;connectable=0;fillColor=#b1ddf0;top=0;left=0;bottom=0;right=0;editable=1;overflow=hidden;whiteSpace=wrap;html=1;strokeColor=#10739e;" vertex="1" parent="Y0nzjm_N_6wjHUXYPser-57">
          <mxGeometry width="50" height="30" as="geometry">
            <mxRectangle width="50" height="30" as="alternateBounds" />
          </mxGeometry>
        </mxCell>
        <mxCell id="Y0nzjm_N_6wjHUXYPser-59" value="status" style="shape=partialRectangle;connectable=0;fillColor=#b1ddf0;top=0;left=0;bottom=0;right=0;align=left;spacingLeft=6;overflow=hidden;whiteSpace=wrap;html=1;strokeColor=#10739e;" vertex="1" parent="Y0nzjm_N_6wjHUXYPser-57">
          <mxGeometry x="50" width="160" height="30" as="geometry">
            <mxRectangle width="160" height="30" as="alternateBounds" />
          </mxGeometry>
        </mxCell>
        <mxCell id="Y0nzjm_N_6wjHUXYPser-74" value="" style="shape=tableRow;horizontal=0;startSize=0;swimlaneHead=0;swimlaneBody=0;fillColor=none;collapsible=0;dropTarget=0;points=[[0,0.5],[1,0.5]];portConstraint=eastwest;top=0;left=0;right=0;bottom=0;" vertex="1" parent="Y0nzjm_N_6wjHUXYPser-53">
          <mxGeometry y="90" width="210" height="30" as="geometry" />
        </mxCell>
        <mxCell id="Y0nzjm_N_6wjHUXYPser-75" value="bool" style="shape=partialRectangle;connectable=0;top=0;left=0;bottom=0;right=0;editable=1;overflow=hidden;whiteSpace=wrap;html=1;fillColor=#fff2cc;strokeColor=#d6b656;gradientColor=#ffd966;" vertex="1" parent="Y0nzjm_N_6wjHUXYPser-74">
          <mxGeometry width="50" height="30" as="geometry">
            <mxRectangle width="50" height="30" as="alternateBounds" />
          </mxGeometry>
        </mxCell>
        <mxCell id="Y0nzjm_N_6wjHUXYPser-76" value="paid" style="shape=partialRectangle;connectable=0;top=0;left=0;bottom=0;right=0;align=left;spacingLeft=6;overflow=hidden;whiteSpace=wrap;html=1;fillColor=#fff2cc;strokeColor=#d6b656;gradientColor=#ffd966;" vertex="1" parent="Y0nzjm_N_6wjHUXYPser-74">
          <mxGeometry x="50" width="160" height="30" as="geometry">
            <mxRectangle width="160" height="30" as="alternateBounds" />
          </mxGeometry>
        </mxCell>
        <mxCell id="Y0nzjm_N_6wjHUXYPser-77" value="" style="shape=tableRow;horizontal=0;startSize=0;swimlaneHead=0;swimlaneBody=0;fillColor=none;collapsible=0;dropTarget=0;points=[[0,0.5],[1,0.5]];portConstraint=eastwest;top=0;left=0;right=0;bottom=0;" vertex="1" parent="Y0nzjm_N_6wjHUXYPser-53">
          <mxGeometry y="120" width="210" height="30" as="geometry" />
        </mxCell>
        <mxCell id="Y0nzjm_N_6wjHUXYPser-78" value="FK" style="shape=partialRectangle;connectable=0;top=0;left=0;bottom=0;right=0;editable=1;overflow=hidden;whiteSpace=wrap;html=1;fillColor=#60a917;strokeColor=#2D7600;fontColor=#ffffff;" vertex="1" parent="Y0nzjm_N_6wjHUXYPser-77">
          <mxGeometry width="50" height="30" as="geometry">
            <mxRectangle width="50" height="30" as="alternateBounds" />
          </mxGeometry>
        </mxCell>
        <mxCell id="Y0nzjm_N_6wjHUXYPser-79" value="user_id" style="shape=partialRectangle;connectable=0;top=0;left=0;bottom=0;right=0;align=left;spacingLeft=6;overflow=hidden;whiteSpace=wrap;html=1;fillColor=#60a917;strokeColor=#2D7600;fontColor=#ffffff;" vertex="1" parent="Y0nzjm_N_6wjHUXYPser-77">
          <mxGeometry x="50" width="160" height="30" as="geometry">
            <mxRectangle width="160" height="30" as="alternateBounds" />
          </mxGeometry>
        </mxCell>
        <mxCell id="Y0nzjm_N_6wjHUXYPser-60" value="" style="shape=tableRow;horizontal=0;startSize=0;swimlaneHead=0;swimlaneBody=0;fillColor=none;collapsible=0;dropTarget=0;points=[[0,0.5],[1,0.5]];portConstraint=eastwest;top=0;left=0;right=0;bottom=0;" vertex="1" parent="Y0nzjm_N_6wjHUXYPser-53">
          <mxGeometry y="150" width="210" height="30" as="geometry" />
        </mxCell>
        <mxCell id="Y0nzjm_N_6wjHUXYPser-61" value="FK" style="shape=partialRectangle;connectable=0;top=0;left=0;bottom=0;right=0;editable=1;overflow=hidden;whiteSpace=wrap;html=1;fillColor=#60a917;strokeColor=#2D7600;fontColor=#ffffff;" vertex="1" parent="Y0nzjm_N_6wjHUXYPser-60">
          <mxGeometry width="50" height="30" as="geometry">
            <mxRectangle width="50" height="30" as="alternateBounds" />
          </mxGeometry>
        </mxCell>
        <mxCell id="Y0nzjm_N_6wjHUXYPser-62" value="medicine_id" style="shape=partialRectangle;connectable=0;top=0;left=0;bottom=0;right=0;align=left;spacingLeft=6;overflow=hidden;whiteSpace=wrap;html=1;fillColor=#60a917;strokeColor=#2D7600;fontColor=#ffffff;" vertex="1" parent="Y0nzjm_N_6wjHUXYPser-60">
          <mxGeometry x="50" width="160" height="30" as="geometry">
            <mxRectangle width="160" height="30" as="alternateBounds" />
          </mxGeometry>
        </mxCell>
        <mxCell id="Y0nzjm_N_6wjHUXYPser-69" value="paid" style="ellipse;whiteSpace=wrap;html=1;fontSize=15;" vertex="1" parent="1">
          <mxGeometry x="385" y="860" width="80" height="60" as="geometry" />
        </mxCell>
        <mxCell id="Y0nzjm_N_6wjHUXYPser-70" value="" style="endArrow=none;html=1;rounded=0;" edge="1" parent="1" target="Y0nzjm_N_6wjHUXYPser-69">
          <mxGeometry width="50" height="50" relative="1" as="geometry">
            <mxPoint x="394.2857142857142" y="820" as="sourcePoint" />
            <mxPoint x="745" y="694.46" as="targetPoint" />
          </mxGeometry>
        </mxCell>
        <mxCell id="Y0nzjm_N_6wjHUXYPser-80" value="" style="endArrow=classic;html=1;rounded=0;" edge="1" parent="1" source="5e0rTwiGWB9B-gvFL6qZ-41" target="Y0nzjm_N_6wjHUXYPser-77">
          <mxGeometry width="50" height="50" relative="1" as="geometry">
            <mxPoint x="477.5" y="1490" as="sourcePoint" />
            <mxPoint x="287.5" y="1590" as="targetPoint" />
            <Array as="points">
              <mxPoint x="597.5" y="1485" />
              <mxPoint x="597.5" y="1715" />
            </Array>
          </mxGeometry>
        </mxCell>
        <mxCell id="Y0nzjm_N_6wjHUXYPser-81" value="" style="endArrow=classic;html=1;rounded=0;" edge="1" parent="1" source="Y0nzjm_N_6wjHUXYPser-23" target="Y0nzjm_N_6wjHUXYPser-60">
          <mxGeometry width="50" height="50" relative="1" as="geometry">
            <mxPoint x="67.5" y="1040" as="sourcePoint" />
            <mxPoint x="47.5" y="1580" as="targetPoint" />
            <Array as="points">
              <mxPoint x="47.5" y="1040" />
              <mxPoint x="47.5" y="1745" />
            </Array>
          </mxGeometry>
        </mxCell>
        <mxCell id="Y0nzjm_N_6wjHUXYPser-82" value="Admin" style="shape=table;startSize=30;container=1;collapsible=1;childLayout=tableLayout;fixedRows=1;rowLines=0;fontStyle=1;align=center;resizeLast=1;html=1;fillColor=#0050ef;strokeColor=#001DBC;fontColor=#ffffff;strokeWidth=1;perimeterSpacing=0;" vertex="1" parent="1">
          <mxGeometry x="737.5" y="1260" width="210" height="150" as="geometry" />
        </mxCell>
        <mxCell id="Y0nzjm_N_6wjHUXYPser-83" value="" style="shape=tableRow;horizontal=0;startSize=0;swimlaneHead=0;swimlaneBody=0;fillColor=none;collapsible=0;dropTarget=0;points=[[0,0.5],[1,0.5]];portConstraint=eastwest;top=0;left=0;right=0;bottom=1;" vertex="1" parent="Y0nzjm_N_6wjHUXYPser-82">
          <mxGeometry y="30" width="210" height="30" as="geometry" />
        </mxCell>
        <mxCell id="Y0nzjm_N_6wjHUXYPser-84" value="PK" style="shape=partialRectangle;connectable=0;fillColor=#fa6800;top=0;left=0;bottom=0;right=0;fontStyle=1;overflow=hidden;whiteSpace=wrap;html=1;strokeColor=#C73500;fontColor=#000000;" vertex="1" parent="Y0nzjm_N_6wjHUXYPser-83">
          <mxGeometry width="50" height="30" as="geometry">
            <mxRectangle width="50" height="30" as="alternateBounds" />
          </mxGeometry>
        </mxCell>
        <mxCell id="Y0nzjm_N_6wjHUXYPser-85" value="id" style="shape=partialRectangle;connectable=0;fillColor=#fa6800;top=0;left=0;bottom=0;right=0;align=left;spacingLeft=6;fontStyle=5;overflow=hidden;whiteSpace=wrap;html=1;fontColor=#000000;strokeColor=#C73500;" vertex="1" parent="Y0nzjm_N_6wjHUXYPser-83">
          <mxGeometry x="50" width="160" height="30" as="geometry">
            <mxRectangle width="160" height="30" as="alternateBounds" />
          </mxGeometry>
        </mxCell>
        <mxCell id="Y0nzjm_N_6wjHUXYPser-86" value="" style="shape=tableRow;horizontal=0;startSize=0;swimlaneHead=0;swimlaneBody=0;fillColor=none;collapsible=0;dropTarget=0;points=[[0,0.5],[1,0.5]];portConstraint=eastwest;top=0;left=0;right=0;bottom=0;" vertex="1" parent="Y0nzjm_N_6wjHUXYPser-82">
          <mxGeometry y="60" width="210" height="30" as="geometry" />
        </mxCell>
        <mxCell id="Y0nzjm_N_6wjHUXYPser-87" value="String" style="shape=partialRectangle;connectable=0;fillColor=#e3c800;top=0;left=0;bottom=0;right=0;editable=1;overflow=hidden;whiteSpace=wrap;html=1;fontColor=#000000;strokeColor=#B09500;" vertex="1" parent="Y0nzjm_N_6wjHUXYPser-86">
          <mxGeometry width="50" height="30" as="geometry">
            <mxRectangle width="50" height="30" as="alternateBounds" />
          </mxGeometry>
        </mxCell>
        <mxCell id="Y0nzjm_N_6wjHUXYPser-88" value="password" style="shape=partialRectangle;connectable=0;fillColor=#e3c800;top=0;left=0;bottom=0;right=0;align=left;spacingLeft=6;overflow=hidden;whiteSpace=wrap;html=1;fontColor=#000000;strokeColor=#B09500;" vertex="1" parent="Y0nzjm_N_6wjHUXYPser-86">
          <mxGeometry x="50" width="160" height="30" as="geometry">
            <mxRectangle width="160" height="30" as="alternateBounds" />
          </mxGeometry>
        </mxCell>
        <mxCell id="Y0nzjm_N_6wjHUXYPser-89" value="" style="shape=tableRow;horizontal=0;startSize=0;swimlaneHead=0;swimlaneBody=0;fillColor=none;collapsible=0;dropTarget=0;points=[[0,0.5],[1,0.5]];portConstraint=eastwest;top=0;left=0;right=0;bottom=0;" vertex="1" parent="Y0nzjm_N_6wjHUXYPser-82">
          <mxGeometry y="90" width="210" height="30" as="geometry" />
        </mxCell>
        <mxCell id="Y0nzjm_N_6wjHUXYPser-90" value="String" style="shape=partialRectangle;connectable=0;top=0;left=0;bottom=0;right=0;editable=1;overflow=hidden;whiteSpace=wrap;html=1;fillColor=#e3c800;fontColor=#000000;strokeColor=#B09500;" vertex="1" parent="Y0nzjm_N_6wjHUXYPser-89">
          <mxGeometry width="50" height="30" as="geometry">
            <mxRectangle width="50" height="30" as="alternateBounds" />
          </mxGeometry>
        </mxCell>
        <mxCell id="Y0nzjm_N_6wjHUXYPser-91" value="email" style="shape=partialRectangle;connectable=0;top=0;left=0;bottom=0;right=0;align=left;spacingLeft=6;overflow=hidden;whiteSpace=wrap;html=1;fillColor=#e3c800;fontColor=#000000;strokeColor=#B09500;" vertex="1" parent="Y0nzjm_N_6wjHUXYPser-89">
          <mxGeometry x="50" width="160" height="30" as="geometry">
            <mxRectangle width="160" height="30" as="alternateBounds" />
          </mxGeometry>
        </mxCell>
        <mxCell id="Y0nzjm_N_6wjHUXYPser-92" value="" style="shape=tableRow;horizontal=0;startSize=0;swimlaneHead=0;swimlaneBody=0;fillColor=none;collapsible=0;dropTarget=0;points=[[0,0.5],[1,0.5]];portConstraint=eastwest;top=0;left=0;right=0;bottom=0;" vertex="1" parent="Y0nzjm_N_6wjHUXYPser-82">
          <mxGeometry y="120" width="210" height="30" as="geometry" />
        </mxCell>
        <mxCell id="Y0nzjm_N_6wjHUXYPser-93" value="String" style="shape=partialRectangle;connectable=0;top=0;left=0;bottom=0;right=0;editable=1;overflow=hidden;whiteSpace=wrap;html=1;fillColor=#e3c800;fontColor=#000000;strokeColor=#B09500;" vertex="1" parent="Y0nzjm_N_6wjHUXYPser-92">
          <mxGeometry width="50" height="30" as="geometry">
            <mxRectangle width="50" height="30" as="alternateBounds" />
          </mxGeometry>
        </mxCell>
        <mxCell id="Y0nzjm_N_6wjHUXYPser-94" value="name" style="shape=partialRectangle;connectable=0;top=0;left=0;bottom=0;right=0;align=left;spacingLeft=6;overflow=hidden;whiteSpace=wrap;html=1;fillColor=#e3c800;fontColor=#000000;strokeColor=#B09500;" vertex="1" parent="Y0nzjm_N_6wjHUXYPser-92">
          <mxGeometry x="50" width="160" height="30" as="geometry">
            <mxRectangle width="160" height="30" as="alternateBounds" />
          </mxGeometry>
        </mxCell>
        <mxCell id="Y0nzjm_N_6wjHUXYPser-102" value="Order" style="rounded=0;whiteSpace=wrap;html=1;fontSize=18;" vertex="1" parent="1">
          <mxGeometry x="270" y="700" width="210" height="120" as="geometry" />
        </mxCell>
        <mxCell id="Y0nzjm_N_6wjHUXYPser-105" value="Has many" style="rhombus;whiteSpace=wrap;html=1;fontSize=15;" vertex="1" parent="1">
          <mxGeometry x="160" y="610" width="95" height="90" as="geometry" />
        </mxCell>
        <mxCell id="Y0nzjm_N_6wjHUXYPser-106" value="" style="shape=link;html=1;rounded=0;" edge="1" parent="1" source="Y0nzjm_N_6wjHUXYPser-105" target="Y0nzjm_N_6wjHUXYPser-102">
          <mxGeometry relative="1" as="geometry">
            <mxPoint x="-197.5" y="620" as="sourcePoint" />
            <mxPoint x="320" y="652" as="targetPoint" />
          </mxGeometry>
        </mxCell>
        <mxCell id="Y0nzjm_N_6wjHUXYPser-107" value="N" style="resizable=0;html=1;whiteSpace=wrap;align=right;verticalAlign=bottom;" connectable="0" vertex="1" parent="Y0nzjm_N_6wjHUXYPser-106">
          <mxGeometry x="1" relative="1" as="geometry" />
        </mxCell>
        <mxCell id="Y0nzjm_N_6wjHUXYPser-110" value="" style="endArrow=none;html=1;rounded=0;" edge="1" parent="1" source="Y0nzjm_N_6wjHUXYPser-105" target="Y0nzjm_N_6wjHUXYPser-1">
          <mxGeometry relative="1" as="geometry">
            <mxPoint x="200" y="620" as="sourcePoint" />
            <mxPoint x="360" y="620" as="targetPoint" />
          </mxGeometry>
        </mxCell>
        <mxCell id="Y0nzjm_N_6wjHUXYPser-111" value="1" style="resizable=0;html=1;whiteSpace=wrap;align=right;verticalAlign=bottom;" connectable="0" vertex="1" parent="Y0nzjm_N_6wjHUXYPser-110">
          <mxGeometry x="1" relative="1" as="geometry" />
        </mxCell>
        <mxCell id="Y0nzjm_N_6wjHUXYPser-112" value="quantity" style="ellipse;whiteSpace=wrap;html=1;fontSize=15;" vertex="1" parent="1">
          <mxGeometry x="555" y="730" width="80" height="60" as="geometry" />
        </mxCell>
        <mxCell id="Y0nzjm_N_6wjHUXYPser-113" value="" style="endArrow=none;html=1;rounded=0;" edge="1" parent="1" target="Y0nzjm_N_6wjHUXYPser-112" source="Y0nzjm_N_6wjHUXYPser-4">
          <mxGeometry width="50" height="50" relative="1" as="geometry">
            <mxPoint x="561.8377842927289" y="661.1536780384674" as="sourcePoint" />
            <mxPoint x="875" y="564.46" as="targetPoint" />
          </mxGeometry>
        </mxCell>
        <mxCell id="Y0nzjm_N_6wjHUXYPser-115" value="Medicine_order" style="shape=table;startSize=30;container=1;collapsible=1;childLayout=tableLayout;fixedRows=1;rowLines=0;fontStyle=1;align=center;resizeLast=1;html=1;fillColor=#0050ef;strokeColor=#001DBC;fontColor=#ffffff;strokeWidth=1;perimeterSpacing=0;" vertex="1" parent="1">
          <mxGeometry x="107.5" y="1370" width="210" height="150" as="geometry" />
        </mxCell>
        <mxCell id="Y0nzjm_N_6wjHUXYPser-116" value="" style="shape=tableRow;horizontal=0;startSize=0;swimlaneHead=0;swimlaneBody=0;fillColor=none;collapsible=0;dropTarget=0;points=[[0,0.5],[1,0.5]];portConstraint=eastwest;top=0;left=0;right=0;bottom=1;" vertex="1" parent="Y0nzjm_N_6wjHUXYPser-115">
          <mxGeometry y="30" width="210" height="30" as="geometry" />
        </mxCell>
        <mxCell id="Y0nzjm_N_6wjHUXYPser-117" value="PK" style="shape=partialRectangle;connectable=0;fillColor=#fa6800;top=0;left=0;bottom=0;right=0;fontStyle=1;overflow=hidden;whiteSpace=wrap;html=1;strokeColor=#C73500;fontColor=#000000;" vertex="1" parent="Y0nzjm_N_6wjHUXYPser-116">
          <mxGeometry width="50" height="30" as="geometry">
            <mxRectangle width="50" height="30" as="alternateBounds" />
          </mxGeometry>
        </mxCell>
        <mxCell id="Y0nzjm_N_6wjHUXYPser-118" value="id" style="shape=partialRectangle;connectable=0;fillColor=#fa6800;top=0;left=0;bottom=0;right=0;align=left;spacingLeft=6;fontStyle=5;overflow=hidden;whiteSpace=wrap;html=1;fontColor=#000000;strokeColor=#C73500;" vertex="1" parent="Y0nzjm_N_6wjHUXYPser-116">
          <mxGeometry x="50" width="160" height="30" as="geometry">
            <mxRectangle width="160" height="30" as="alternateBounds" />
          </mxGeometry>
        </mxCell>
        <mxCell id="Y0nzjm_N_6wjHUXYPser-122" value="" style="shape=tableRow;horizontal=0;startSize=0;swimlaneHead=0;swimlaneBody=0;fillColor=none;collapsible=0;dropTarget=0;points=[[0,0.5],[1,0.5]];portConstraint=eastwest;top=0;left=0;right=0;bottom=0;" vertex="1" parent="Y0nzjm_N_6wjHUXYPser-115">
          <mxGeometry y="60" width="210" height="30" as="geometry" />
        </mxCell>
        <mxCell id="Y0nzjm_N_6wjHUXYPser-123" value="Integer" style="shape=partialRectangle;connectable=0;top=0;left=0;bottom=0;right=0;editable=1;overflow=hidden;whiteSpace=wrap;html=1;" vertex="1" parent="Y0nzjm_N_6wjHUXYPser-122">
          <mxGeometry width="50" height="30" as="geometry">
            <mxRectangle width="50" height="30" as="alternateBounds" />
          </mxGeometry>
        </mxCell>
        <mxCell id="Y0nzjm_N_6wjHUXYPser-124" value="quantity" style="shape=partialRectangle;connectable=0;top=0;left=0;bottom=0;right=0;align=left;spacingLeft=6;overflow=hidden;whiteSpace=wrap;html=1;" vertex="1" parent="Y0nzjm_N_6wjHUXYPser-122">
          <mxGeometry x="50" width="160" height="30" as="geometry">
            <mxRectangle width="160" height="30" as="alternateBounds" />
          </mxGeometry>
        </mxCell>
        <mxCell id="Y0nzjm_N_6wjHUXYPser-125" value="" style="shape=tableRow;horizontal=0;startSize=0;swimlaneHead=0;swimlaneBody=0;fillColor=none;collapsible=0;dropTarget=0;points=[[0,0.5],[1,0.5]];portConstraint=eastwest;top=0;left=0;right=0;bottom=0;" vertex="1" parent="Y0nzjm_N_6wjHUXYPser-115">
          <mxGeometry y="90" width="210" height="30" as="geometry" />
        </mxCell>
        <mxCell id="Y0nzjm_N_6wjHUXYPser-126" value="FK" style="shape=partialRectangle;connectable=0;top=0;left=0;bottom=0;right=0;editable=1;overflow=hidden;whiteSpace=wrap;html=1;fillColor=#60a917;strokeColor=#2D7600;fontColor=#ffffff;" vertex="1" parent="Y0nzjm_N_6wjHUXYPser-125">
          <mxGeometry width="50" height="30" as="geometry">
            <mxRectangle width="50" height="30" as="alternateBounds" />
          </mxGeometry>
        </mxCell>
        <mxCell id="Y0nzjm_N_6wjHUXYPser-127" value="order_id" style="shape=partialRectangle;connectable=0;top=0;left=0;bottom=0;right=0;align=left;spacingLeft=6;overflow=hidden;whiteSpace=wrap;html=1;fillColor=#60a917;strokeColor=#2D7600;fontColor=#ffffff;" vertex="1" parent="Y0nzjm_N_6wjHUXYPser-125">
          <mxGeometry x="50" width="160" height="30" as="geometry">
            <mxRectangle width="160" height="30" as="alternateBounds" />
          </mxGeometry>
        </mxCell>
        <mxCell id="Y0nzjm_N_6wjHUXYPser-128" value="" style="shape=tableRow;horizontal=0;startSize=0;swimlaneHead=0;swimlaneBody=0;fillColor=none;collapsible=0;dropTarget=0;points=[[0,0.5],[1,0.5]];portConstraint=eastwest;top=0;left=0;right=0;bottom=0;" vertex="1" parent="Y0nzjm_N_6wjHUXYPser-115">
          <mxGeometry y="120" width="210" height="30" as="geometry" />
        </mxCell>
        <mxCell id="Y0nzjm_N_6wjHUXYPser-129" value="FK" style="shape=partialRectangle;connectable=0;top=0;left=0;bottom=0;right=0;editable=1;overflow=hidden;whiteSpace=wrap;html=1;fillColor=#60a917;strokeColor=#2D7600;fontColor=#ffffff;" vertex="1" parent="Y0nzjm_N_6wjHUXYPser-128">
          <mxGeometry width="50" height="30" as="geometry">
            <mxRectangle width="50" height="30" as="alternateBounds" />
          </mxGeometry>
        </mxCell>
        <mxCell id="Y0nzjm_N_6wjHUXYPser-130" value="medicine_id" style="shape=partialRectangle;connectable=0;top=0;left=0;bottom=0;right=0;align=left;spacingLeft=6;overflow=hidden;whiteSpace=wrap;html=1;fillColor=#60a917;strokeColor=#2D7600;fontColor=#ffffff;" vertex="1" parent="Y0nzjm_N_6wjHUXYPser-128">
          <mxGeometry x="50" width="160" height="30" as="geometry">
            <mxRectangle width="160" height="30" as="alternateBounds" />
          </mxGeometry>
        </mxCell>
        <mxCell id="Y0nzjm_N_6wjHUXYPser-131" value="" style="endArrow=classic;html=1;rounded=0;" edge="1" parent="1" source="Y0nzjm_N_6wjHUXYPser-23" target="Y0nzjm_N_6wjHUXYPser-128">
          <mxGeometry width="50" height="50" relative="1" as="geometry">
            <mxPoint x="77.5" y="1051" as="sourcePoint" />
            <mxPoint x="77.5" y="1480" as="targetPoint" />
            <Array as="points">
              <mxPoint x="57.5" y="1050" />
              <mxPoint x="57.5" y="1505" />
            </Array>
          </mxGeometry>
        </mxCell>
        <mxCell id="Y0nzjm_N_6wjHUXYPser-132" value="" style="endArrow=classic;html=1;rounded=0;" edge="1" parent="1" source="Y0nzjm_N_6wjHUXYPser-54" target="Y0nzjm_N_6wjHUXYPser-125">
          <mxGeometry width="50" height="50" relative="1" as="geometry">
            <mxPoint x="605.5" y="1320" as="sourcePoint" />
            <mxPoint x="227.5" y="1550" as="targetPoint" />
            <Array as="points">
              <mxPoint x="357.5" y="1625" />
              <mxPoint x="357.5" y="1475" />
            </Array>
          </mxGeometry>
        </mxCell>
      </root>
    </mxGraphModel>
  </diagram>
</mxfile>
